<svg width="75" height="70" viewBox="0 0 75 70" fill="none" xmlns="http://www.w3.org/2000/svg">
<g opacity="0.2">
<path opacity="0.4" d="M36.0124 -16.8933L28.909 -13.6099C17.9697 -8.55334 12.5 -6.02508 12.5 -1.87496C12.5 2.27517 17.9697 4.80341 28.909 9.85995L36.0124 13.1434C42.8967 16.3255 46.3392 17.9167 50 17.9167C53.6608 17.9167 57.1033 16.3255 63.9875 13.1434L71.0908 9.85995C82.0304 4.80341 87.5 2.27517 87.5 -1.87496C87.5 -6.02508 82.0304 -8.55334 71.0908 -13.6099L63.9875 -16.8933C57.1033 -20.0755 53.6608 -21.6666 50 -21.6666C46.3392 -21.6666 42.8967 -20.0755 36.0124 -16.8933Z" fill="#CD3234"/>
<path d="M36.0124 -16.8933L28.909 -13.6099C17.9697 -8.55333 12.5 -6.02508 12.5 -1.87496C12.5 2.27516 17.9697 4.80341 28.909 9.85995L36.0124 13.1434C42.8967 16.3255 46.3392 17.9167 50 17.9167C53.6608 17.9167 57.1033 16.3255 63.9875 13.1434L71.0908 9.85995C82.0304 4.80341 87.5 2.27516 87.5 -1.87496C87.5 -6.02508 82.0304 -8.55333 71.0908 -13.6099L63.9875 -16.8933C57.1033 -20.0755 53.6608 -21.6666 50 -21.6666C46.3392 -21.6666 42.8967 -20.0755 36.0124 -16.8933Z" stroke="#CD3234" stroke-width="6.25" stroke-linecap="round" stroke-linejoin="round"/>
<path d="M86.6167 16.2402C87.2054 17.0682 87.5 17.9315 87.5 18.8806C87.5 22.9715 82.0304 25.464 71.0908 30.4486L63.9875 33.6852C57.1033 36.8219 53.6608 38.3902 50 38.3902C46.3392 38.3902 42.8967 36.8219 36.0124 33.6852L28.909 30.4486C17.9697 25.464 12.5 22.9715 12.5 18.8806C12.5 17.9315 12.7945 17.0682 13.3833 16.2402" stroke="#CD3234" stroke-width="6.25" stroke-linecap="round" stroke-linejoin="round"/>
<path d="M84.9029 37.7734C86.6342 39.1526 87.5 40.5272 87.5 42.1547C87.5 46.2459 82.0304 48.738 71.0908 53.7226L63.9875 56.9593C57.1033 60.0963 53.6608 61.6647 50 61.6647C46.3392 61.6647 42.8967 60.0963 36.0124 56.9593L28.909 53.7226C17.9697 48.738 12.5 46.2459 12.5 42.1547C12.5 40.5272 13.3657 39.1526 15.0972 37.7734" stroke="#CD3234" stroke-width="6.25" stroke-linecap="round" stroke-linejoin="round"/>
</g>
</svg>
