<svg width="40" height="40" viewBox="0 0 40 40" fill="none" xmlns="http://www.w3.org/2000/svg">
<path d="M20.0007 36.6668C29.2054 36.6668 36.6673 29.2049 36.6673 20.0002C36.6673 10.7954 29.2054 3.3335 20.0007 3.3335C10.7959 3.3335 3.33398 10.7954 3.33398 20.0002C3.33398 29.2049 10.7959 36.6668 20.0007 36.6668Z" fill="#E60023"/>
<path d="M13.3327 35L19.9993 18.3333M16.6221 27.6205C17.6545 28.0787 18.7972 28.3332 19.9993 28.3332C24.6017 28.3332 28.3327 24.6022 28.3327 19.9998C28.3327 15.3975 24.6017 11.6665 19.9993 11.6665C15.397 11.6665 11.666 15.3975 11.666 19.9998C11.666 21.5178 12.0721 22.9408 12.7814 24.1665" stroke="white" stroke-width="2.5" stroke-linecap="round" stroke-linejoin="round"/>
</svg>
