<svg width="40" height="40" viewBox="0 0 40 40" fill="none" xmlns="http://www.w3.org/2000/svg">
<path d="M8.33268 15H7.49935C5.928 15 5.14233 15 4.65417 15.4881C4.16602 15.9763 4.16602 16.762 4.16602 18.3333V32.5C4.16602 34.0713 4.16602 34.857 4.65417 35.3452C5.14233 35.8333 5.928 35.8333 7.49935 35.8333H8.33268C9.90403 35.8333 10.6897 35.8333 11.1779 35.3452C11.666 34.857 11.666 34.0713 11.666 32.5V18.3333C11.666 16.762 11.666 15.9763 11.1779 15.4881C10.6897 15 9.90403 15 8.33268 15Z" fill="#0077B5"/>
<path d="M11.666 7.9165C11.666 9.98757 9.98708 11.6665 7.91602 11.6665C5.84495 11.6665 4.16602 9.98757 4.16602 7.9165C4.16602 5.84544 5.84495 4.1665 7.91602 4.1665C9.98708 4.1665 11.666 5.84544 11.666 7.9165Z" fill="#0077B5"/>
<path opacity="0.4" d="M19.71 15H18.3333C16.762 15 15.9763 15 15.4881 15.4881C15 15.9763 15 16.762 15 18.3333V32.5C15 34.0713 15 34.857 15.4881 35.3452C15.9763 35.8333 16.762 35.8333 18.3333 35.8333H19.1667C20.738 35.8333 21.5237 35.8333 22.0118 35.3452C22.5 34.857 22.5 34.0713 22.5 32.5L22.5002 26.6668C22.5002 23.9055 23.3802 21.6668 25.9798 21.6668C27.2795 21.6668 28.3333 22.7862 28.3333 24.1668V31.6668C28.3333 33.2382 28.3333 34.0238 28.8215 34.512C29.3095 35.0002 30.0953 35.0002 31.6667 35.0002H32.4978C34.0688 35.0002 34.8543 35.0002 35.3425 34.5122C35.8307 34.0242 35.8308 33.2387 35.8312 31.6677L35.8335 22.5003C35.8335 18.3583 31.894 15.0004 27.9947 15.0004C25.7748 15.0004 23.7945 16.0885 22.5002 17.79C22.5 16.7398 22.5 16.2149 22.272 15.825C22.1275 15.5781 21.9218 15.3726 21.675 15.2281C21.2852 15 20.7602 15 19.71 15Z" fill="#0077B5"/>
</svg>
