<svg width="75" height="70" viewBox="0 0 75 70" fill="none" xmlns="http://www.w3.org/2000/svg">
<g opacity="0.2">
<path d="M70.8334 20C70.8334 31.5058 61.5059 40.8333 50 40.8333C38.4941 40.8333 29.1667 31.5058 29.1667 20C29.1667 8.49404 38.4941 -0.833374 50 -0.833374" stroke="#CD3234" stroke-width="6.25" stroke-linecap="round"/>
<path d="M58.3333 -20.8331C55.6408 -21.3797 52.8537 -21.6666 50 -21.6666C26.9881 -21.6666 8.33331 -3.01183 8.33331 20C8.33331 43.0117 26.9881 61.6667 50 61.6667C73.0117 61.6667 91.6667 43.0117 91.6667 20C91.6667 17.1463 91.3796 14.3592 90.8333 11.6667" stroke="#CD3234" stroke-width="6.25" stroke-linecap="round"/>
<path opacity="0.4" fill-rule="evenodd" clip-rule="evenodd" d="M91.6667 20C91.6667 43.0117 73.0117 61.6667 50 61.6667C26.9881 61.6667 8.33331 43.0117 8.33331 20C8.33331 -3.01183 26.9881 -21.6666 50 -21.6666C57.7546 -21.6666 65.0146 -19.5483 71.2325 -15.8586C68.1421 -12.6278 66.825 -8.21042 67.8271 -4.36958L69.1812 0.820335L74.3712 2.17446C78.2121 3.17654 82.6292 1.85971 85.86 -1.23025C89.5487 4.98721 91.6667 12.2463 91.6667 20ZM70.8333 20C70.8333 31.5059 61.5058 40.8334 50 40.8334C38.4941 40.8334 29.1666 31.5059 29.1666 20C29.1666 8.49413 38.4941 -0.83329 50 -0.83329C61.5058 -0.83329 70.8333 8.49413 70.8333 20Z" fill="#CD3234"/>
<path d="M69.1796 0.820337L50 20M69.1796 0.820337L67.8254 -4.36958C66.7996 -8.30116 68.2042 -12.8368 71.4529 -16.0856L76.2417 -20.8747C77.5171 -22.1499 79.4912 -21.8346 79.8937 -20.2913L82.0454 -12.0453L90.2913 -9.89379C91.8346 -9.49116 92.15 -7.517 90.8746 -6.24179L86.0858 -1.45266C82.8371 1.79609 78.3012 3.20025 74.3696 2.17446L69.1796 0.820337Z" stroke="#CD3234" stroke-width="6.25" stroke-linecap="round" stroke-linejoin="round"/>
</g>
</svg>
