<svg width="40" height="40" viewBox="0 0 40 40" fill="none" xmlns="http://www.w3.org/2000/svg">
<path fill-rule="evenodd" clip-rule="evenodd" d="M7.40935 6.66652C7.43953 6.66652 7.46976 6.66652 7.50001 6.66652H11.5C15.6896 6.66652 19.1667 9.98043 19.1667 14.1665C19.1667 16.5395 18.0493 18.6322 16.3183 19.9998C18.0493 21.3675 19.1667 23.4602 19.1667 25.8332C19.1667 30.0193 15.6896 33.3332 11.5 33.3332H7.50003C7.46976 33.3332 7.43953 33.3332 7.40935 33.3332C6.70256 33.3333 6.01568 33.3335 5.44916 33.2573C4.81048 33.1715 4.0817 32.9622 3.47633 32.3568C2.87098 31.7515 2.66176 31.0227 2.5759 30.384C2.49973 29.8175 2.49986 29.1307 2.50001 28.4238C2.50001 28.3937 2.50001 28.3635 2.50001 28.3332V11.6665C2.50001 11.6363 2.50001 11.606 2.50001 11.5759C2.49986 10.8691 2.49973 10.1822 2.5759 9.61565C2.66176 8.97698 2.87098 8.2482 3.47633 7.64283C4.0817 7.03748 4.81048 6.82827 5.44915 6.7424C6.01568 6.66623 6.70256 6.66637 7.40935 6.66652ZM5.83335 21.6665V28.3332C5.83335 29.166 5.8369 29.6228 5.87951 29.9398C5.88006 29.944 5.88061 29.948 5.88118 29.952C5.88513 29.9527 5.88918 29.9532 5.89331 29.9537C6.2103 29.9963 6.66723 29.9998 7.50003 29.9998H11.5C13.9378 29.9998 15.8333 28.0905 15.8333 25.8332C15.8333 23.576 13.9378 21.6665 11.5 21.6665H5.83335ZM11.5 18.3332H5.83335V11.6665C5.83335 10.8337 5.8369 10.3768 5.87951 10.0598C5.88006 10.0557 5.88063 10.0516 5.88118 10.0477C5.88513 10.0471 5.88918 10.0466 5.89331 10.046C6.2103 10.0034 6.66723 9.99985 7.50001 9.99985H11.5C13.9378 9.99985 15.8333 11.9093 15.8333 14.1665C15.8333 16.4238 13.9378 18.3332 11.5 18.3332Z" fill="#1769FF"/>
<path opacity="0.4" fill-rule="evenodd" clip-rule="evenodd" d="M24.1673 11.6667C24.1673 10.7462 24.9135 10 25.834 10H32.5007C33.4212 10 34.1673 10.7462 34.1673 11.6667C34.1673 12.5871 33.4212 13.3333 32.5007 13.3333H25.834C24.9135 13.3333 24.1673 12.5871 24.1673 11.6667ZM20.834 23.3333C20.834 19.0558 24.5203 15 29.1673 15C33.8143 15 37.5007 19.0558 37.5007 23.3333C37.5007 24.2538 36.7545 25 35.834 25H24.1673C24.1673 27.7615 26.4058 30 29.1673 30C31.016 30 32.6323 28.9977 33.4995 27.4988C33.9603 26.702 34.9798 26.4298 35.7766 26.8907C36.5735 27.3515 36.8456 28.3712 36.3848 29.1678C34.9465 31.6543 32.254 33.3333 29.1673 33.3333C24.565 33.3333 20.834 29.6023 20.834 25V23.3333ZM24.4917 21.6667H33.843C33.1202 19.8205 31.2742 18.3333 29.1673 18.3333C27.0605 18.3333 25.2145 19.8205 24.4917 21.6667Z" fill="#1769FF"/>
</svg>
