<svg width="40" height="40" viewBox="0 0 40 40" fill="none" xmlns="http://www.w3.org/2000/svg">
<path opacity="0.4" d="M25.7363 21.1263C27.7246 20.6596 29.7908 20.4134 31.9115 20.4134C33.6103 20.4134 35.2768 20.5719 36.8968 20.8756C36.9521 20.8859 37.0078 20.9003 37.0611 20.9179C37.4748 21.0549 37.9061 20.7643 37.914 20.3288C37.916 20.2186 37.9173 20.1074 37.9173 19.9968C37.9171 15.8142 36.4833 11.9663 34.081 8.91764C33.776 8.53084 33.2007 8.52234 32.8637 8.88184L32.5983 9.16504C30.169 12.006 27.1973 14.3854 23.8402 16.1491C23.4352 16.3619 23.264 16.8548 23.4512 17.2721C23.9282 18.3348 24.3483 19.4286 24.7093 20.5484C24.848 20.9784 25.2966 21.2294 25.7363 21.1263ZM7.62598 32.9786C7.98465 33.3211 8.5593 33.2458 8.84017 32.8369L8.98177 32.6303C12.2542 28.0348 16.6967 24.4386 21.8382 22.3746C22.2448 22.2116 22.4701 21.7683 22.3363 21.3509C21.9943 20.2863 21.5937 19.2474 21.1383 18.2389C20.9593 17.8426 20.5007 17.6636 20.0918 17.8109C16.8988 18.9638 13.4479 19.5931 9.84928 19.5931C7.51272 19.5931 5.23748 19.3288 3.05403 18.8264C3.0407 18.8234 3.02657 18.8203 3.01335 18.8168C2.5586 18.6961 2.10578 19.0168 2.09212 19.4873C2.08715 19.6611 2.08398 19.8364 2.08398 20.0114C2.08417 25.1109 4.21168 29.7136 7.62598 32.9786Z" fill="#EA4C89"/>
<path d="M21.5346 13.6492C21.763 14.0215 22.2366 14.1689 22.6235 13.9666C25.7295 12.3437 28.4748 10.146 30.7143 7.52133C31.1023 7.06671 31.7151 6.41851 31.0513 5.89698C28.007 3.50825 24.1695 2.08363 19.9998 2.0835C17.2653 2.0835 14.6736 2.69696 12.355 3.79248C12.2906 3.8229 12.2842 3.91143 12.3436 3.95036C16.0653 6.35656 19.2308 9.8914 21.5346 13.6492ZM9.84845 17.0948C12.9412 17.0948 15.9127 16.5883 18.6815 15.6561C19.1725 15.4906 19.376 14.9113 19.0965 14.4744C16.9733 11.1548 14.2056 8.28521 10.9699 6.0402L10.2586 5.5796C9.97487 5.39601 9.60717 5.40101 9.33575 5.60238C6.14559 7.97108 3.76919 11.3755 2.70327 15.3192C2.58645 15.7514 2.85349 16.1876 3.28595 16.3022C5.41364 16.8662 7.65117 17.0948 9.84845 17.0948ZM25.6411 37.0103C31.3936 35.103 35.8543 30.3598 37.3631 24.437C37.543 23.7313 36.8763 23.4938 36.354 23.3205C34.9106 23.0548 33.4253 22.9168 31.9106 22.9168C29.9956 22.9168 28.1265 23.1383 26.3246 23.5597C25.8936 23.6607 25.6321 24.0913 25.7128 24.5265C26.0653 26.4312 26.2498 28.3957 26.2498 30.4022C26.2498 32.5917 26.0518 34.8128 25.5793 36.9533C25.5706 36.9902 25.6051 37.022 25.6411 37.0103ZM19.9998 37.9462C20.7733 37.9462 21.536 37.8965 22.2833 37.8013C22.9623 37.7142 23.0161 36.9578 23.1411 36.426C23.5395 34.4888 23.7481 32.4805 23.7481 30.4233C23.7481 28.7508 23.611 27.11 23.3446 25.5128C23.2596 25.0048 22.7275 24.712 22.2541 24.9138C17.6313 26.8897 13.6435 30.259 10.8039 34.3963C10.5378 34.784 10.6431 35.3163 11.0496 35.552C13.6829 37.0743 16.7401 37.9462 19.9998 37.9462Z" fill="#EA4C89"/>
</svg>
